<svg width="33" height="32" viewBox="0 0 33 32" fill="none" xmlns="http://www.w3.org/2000/svg">
<mask id="mask0_98395_1641" style="mask-type:alpha" maskUnits="userSpaceOnUse" x="0" y="0" width="33" height="32">
<rect x="0.110474" width="32" height="32" fill="#D9D9D9"/>
</mask>
<g mask="url(#mask0_98395_1641)">
<path d="M24.1105 8.00008C23.3771 8.00008 22.7491 7.73875 22.2265 7.21608C21.7047 6.6943 21.4438 6.06675 21.4438 5.33341C21.4438 4.60008 21.7047 3.97208 22.2265 3.44941C22.7491 2.92764 23.3771 2.66675 24.1105 2.66675C24.8438 2.66675 25.4718 2.92764 25.9945 3.44941C26.5163 3.97208 26.7771 4.60008 26.7771 5.33341C26.7771 6.06675 26.5163 6.6943 25.9945 7.21608C25.4718 7.73875 24.8438 8.00008 24.1105 8.00008ZM22.7771 29.3334V18.6667C22.7771 17.7779 22.5496 16.9779 22.0945 16.2667C21.6385 15.5556 21.0549 15.0001 20.3438 14.6001L21.5105 11.1667C21.6883 10.6112 22.0163 10.1667 22.4945 9.83341C22.9718 9.50008 23.5105 9.33341 24.1105 9.33341C24.7105 9.33341 25.2491 9.50008 25.7265 9.83341C26.2047 10.1667 26.5327 10.6112 26.7105 11.1667L30.1105 21.3334H26.7771V29.3334H22.7771ZM16.7771 15.3334C16.2216 15.3334 15.7496 15.1387 15.3611 14.7494C14.9718 14.361 14.7771 13.889 14.7771 13.3334C14.7771 12.7779 14.9718 12.3059 15.3611 11.9174C15.7496 11.5281 16.2216 11.3334 16.7771 11.3334C17.3327 11.3334 17.8047 11.5281 18.1931 11.9174C18.5825 12.3059 18.7771 12.7779 18.7771 13.3334C18.7771 13.889 18.5825 14.361 18.1931 14.7494C17.8047 15.1387 17.3327 15.3334 16.7771 15.3334ZM7.44381 8.00008C6.71048 8.00008 6.08292 7.73875 5.56115 7.21608C5.03848 6.6943 4.77715 6.06675 4.77715 5.33341C4.77715 4.60008 5.03848 3.97208 5.56115 3.44941C6.08292 2.92764 6.71048 2.66675 7.44381 2.66675C8.17715 2.66675 8.8047 2.92764 9.32648 3.44941C9.84915 3.97208 10.1105 4.60008 10.1105 5.33341C10.1105 6.06675 9.84915 6.6943 9.32648 7.21608C8.8047 7.73875 8.17715 8.00008 7.44381 8.00008ZM4.77715 29.3334V20.0001H2.77715V12.0001C2.77715 11.2667 3.03848 10.6387 3.56115 10.1161C4.08292 9.5943 4.71048 9.33341 5.44381 9.33341H9.44381C10.1771 9.33341 10.8047 9.5943 11.3265 10.1161C11.8491 10.6387 12.1105 11.2667 12.1105 12.0001V20.0001H10.1105V29.3334H4.77715ZM14.7771 29.3334V24.0001H13.4438V18.6667C13.4438 18.1112 13.6385 17.6392 14.0278 17.2507C14.4163 16.8614 14.8883 16.6667 15.4438 16.6667H18.1105C18.666 16.6667 19.138 16.8614 19.5265 17.2507C19.9158 17.6392 20.1105 18.1112 20.1105 18.6667V24.0001H18.7771V29.3334H14.7771Z" fill="black"/>
</g>
</svg>
