<svg width="32" height="32" viewBox="0 0 32 32" fill="none" xmlns="http://www.w3.org/2000/svg">
<mask id="mask0_98395_1670" style="mask-type:alpha" maskUnits="userSpaceOnUse" x="0" y="0" width="32" height="32">
<rect width="32" height="32" fill="#D9D9D9"/>
</mask>
<g mask="url(#mask0_98395_1670)">
<path d="M16 29.3334C12.9111 28.5556 10.3613 26.7832 8.35065 24.0161C6.33909 21.2499 5.33331 18.1779 5.33331 14.8001V6.66675L16 2.66675L26.6666 6.66675V14.8001C26.6666 18.1779 25.6613 21.2499 23.6506 24.0161C21.6391 26.7832 19.0889 28.5556 16 29.3334ZM16 26.5334C18.1555 25.8667 19.9555 24.5503 21.4 22.5841C22.8444 20.617 23.6889 18.4223 23.9333 16.0001H16V5.50008L7.99998 8.50008V15.4001C7.99998 15.5556 8.0222 15.7556 8.06665 16.0001H16V26.5334Z" fill="black"/>
</g>
</svg>
