<svg width="42" height="42" viewBox="0 0 42 42" fill="none" xmlns="http://www.w3.org/2000/svg">
<path d="M35.8477 0L6.15234 0C2.76022 0 0 2.76022 0 6.15234L0 35.8477C0 39.2398 2.76022 42 6.15234 42H18.5391L18.5391 27.1523H13.6172V19.7695H18.5391V14.7656C18.5391 10.6945 21.8508 7.38281 25.9219 7.38281L33.3867 7.38281V14.7656L25.9219 14.7656V19.7695L33.3867 19.7695L32.1562 27.1523H25.9219L25.9219 42H35.8477C39.2398 42 42 39.2398 42 35.8477L42 6.15234C42 2.76022 39.2398 0 35.8477 0Z" fill="white"/>
</svg>
