<svg width="153" height="56" viewBox="0 0 153 56" fill="none" xmlns="http://www.w3.org/2000/svg">
<g filter="url(#filter0_b_98395_1754)">
<line x1="2" y1="54.5" x2="149" y2="54.5" stroke="#FFA501" stroke-width="3"/>
<g filter="url(#filter1_d_98395_1754)">
<path d="M32.852 0.727999V26H26.696V10.844L21.044 26H16.076L10.388 10.808V26H4.232V0.727999H11.504L18.596 18.224L25.616 0.727999H32.852ZM43.4349 5.66V10.772H51.6789V15.524H43.4349V21.068H52.7589V26H37.2789V0.727999H52.7589V5.66H43.4349ZM62.9114 21.248H70.9754V26H56.7554V0.727999H62.9114V21.248ZM96.5197 26H90.3637L80.0677 10.412V26H73.9117V0.727999H80.0677L90.3637 16.388V0.727999H96.5197V26ZM122.654 0.727999L113.906 17.648V26H107.75V17.648L99.002 0.727999H105.986L110.882 11.312L115.742 0.727999H122.654ZM139.786 26L131.29 14.84V26H125.134V0.727999H131.29V11.816L139.714 0.727999H146.95L137.158 13.112L147.31 26H139.786Z" fill="white"/>
</g>
<path d="M6.36 44.52H11.24V46H4.54V32.06H6.36V44.52ZM31.0128 42.9H24.9328L23.8128 46H21.8928L26.9328 32.14H29.0328L34.0528 46H32.1328L31.0128 42.9ZM30.4928 41.42L27.9728 34.38L25.4528 41.42H30.4928ZM63.3694 32.06L59.3294 46H57.2894L54.0494 34.78L50.6894 46L48.6694 46.02L44.7694 32.06H46.7094L49.7494 43.88L53.1094 32.06H55.1494L58.3494 43.84L61.4094 32.06H63.3694ZM84.7211 32.06L80.1811 40.74V46H78.3611V40.74L73.8011 32.06H75.8211L79.2611 39.12L82.7011 32.06H84.7211ZM98.0608 33.54V38.2H103.141V39.7H98.0608V44.5H103.741V46H96.2408V32.04H103.741V33.54H98.0608ZM123.435 46L120.115 40.3H117.915V46H116.095V32.06H120.595C121.648 32.06 122.535 32.24 123.255 32.6C123.988 32.96 124.535 33.4467 124.895 34.06C125.255 34.6733 125.435 35.3733 125.435 36.16C125.435 37.12 125.155 37.9667 124.595 38.7C124.048 39.4333 123.221 39.92 122.115 40.16L125.615 46H123.435ZM117.915 38.84H120.595C121.581 38.84 122.321 38.6 122.815 38.12C123.308 37.6267 123.555 36.9733 123.555 36.16C123.555 35.3333 123.308 34.6933 122.815 34.24C122.335 33.7867 121.595 33.56 120.595 33.56H117.915V38.84ZM142.283 46.14C141.363 46.14 140.536 45.98 139.803 45.66C139.083 45.3267 138.516 44.8733 138.103 44.3C137.689 43.7133 137.476 43.04 137.463 42.28H139.403C139.469 42.9333 139.736 43.4867 140.203 43.94C140.683 44.38 141.376 44.6 142.283 44.6C143.149 44.6 143.829 44.3867 144.323 43.96C144.829 43.52 145.083 42.96 145.083 42.28C145.083 41.7467 144.936 41.3133 144.643 40.98C144.349 40.6467 143.983 40.3933 143.543 40.22C143.103 40.0467 142.509 39.86 141.763 39.66C140.843 39.42 140.103 39.18 139.543 38.94C138.996 38.7 138.523 38.3267 138.123 37.82C137.736 37.3 137.543 36.6067 137.543 35.74C137.543 34.98 137.736 34.3067 138.123 33.72C138.509 33.1333 139.049 32.68 139.743 32.36C140.449 32.04 141.256 31.88 142.163 31.88C143.469 31.88 144.536 32.2067 145.363 32.86C146.203 33.5133 146.676 34.38 146.783 35.46H144.783C144.716 34.9267 144.436 34.46 143.943 34.06C143.449 33.6467 142.796 33.44 141.983 33.44C141.223 33.44 140.603 33.64 140.123 34.04C139.643 34.4267 139.403 34.9733 139.403 35.68C139.403 36.1867 139.543 36.6 139.823 36.92C140.116 37.24 140.469 37.4867 140.883 37.66C141.309 37.82 141.903 38.0067 142.663 38.22C143.583 38.4733 144.323 38.7267 144.883 38.98C145.443 39.22 145.923 39.6 146.323 40.12C146.723 40.6267 146.923 41.32 146.923 42.2C146.923 42.88 146.743 43.52 146.383 44.12C146.023 44.72 145.489 45.2067 144.783 45.58C144.076 45.9533 143.243 46.14 142.283 46.14Z" fill="white"/>
</g>
<defs>
<filter id="filter0_b_98395_1754" x="-2" y="-3.27197" width="155" height="63.272" filterUnits="userSpaceOnUse" color-interpolation-filters="sRGB">
<feFlood flood-opacity="0" result="BackgroundImageFix"/>
<feGaussianBlur in="BackgroundImageFix" stdDeviation="2"/>
<feComposite in2="SourceAlpha" operator="in" result="effect1_backgroundBlur_98395_1754"/>
<feBlend mode="normal" in="SourceGraphic" in2="effect1_backgroundBlur_98395_1754" result="shape"/>
</filter>
<filter id="filter1_d_98395_1754" x="0.231995" y="0.728027" width="151.078" height="33.272" filterUnits="userSpaceOnUse" color-interpolation-filters="sRGB">
<feFlood flood-opacity="0" result="BackgroundImageFix"/>
<feColorMatrix in="SourceAlpha" type="matrix" values="0 0 0 0 0 0 0 0 0 0 0 0 0 0 0 0 0 0 127 0" result="hardAlpha"/>
<feOffset dy="4"/>
<feGaussianBlur stdDeviation="2"/>
<feComposite in2="hardAlpha" operator="out"/>
<feColorMatrix type="matrix" values="0 0 0 0 0 0 0 0 0 0 0 0 0 0 0 0 0 0 0.25 0"/>
<feBlend mode="normal" in2="BackgroundImageFix" result="effect1_dropShadow_98395_1754"/>
<feBlend mode="normal" in="SourceGraphic" in2="effect1_dropShadow_98395_1754" result="shape"/>
</filter>
</defs>
</svg>
