<svg width="42" height="42" viewBox="0 0 42 42" fill="none" xmlns="http://www.w3.org/2000/svg">
<path d="M-1.23787e-06 13.125L-5.62667e-07 28.875C-2.51962e-07 36.1226 5.87737 42 13.125 42L28.875 42C36.1226 42 42 36.1226 42 28.875L42 13.125C42 5.87737 36.1226 -1.60996e-06 28.875 -1.28694e-06L13.125 -5.84974e-07C5.87737 -2.61951e-07 -1.54857e-06 5.87738 -1.23787e-06 13.125ZM28.875 3.9375C33.9412 3.9375 38.0625 8.05875 38.0625 13.125L38.0625 28.875C38.0625 33.9412 33.9412 38.0625 28.875 38.0625L13.125 38.0625C8.05875 38.0625 3.9375 33.9412 3.9375 28.875L3.9375 13.125C3.9375 8.05875 8.05875 3.9375 13.125 3.9375L28.875 3.9375Z" fill="white"/>
<path d="M10.5 21C10.5 26.7986 15.2014 31.5 21 31.5C26.7986 31.5 31.5 26.7986 31.5 21C31.5 15.2014 26.7986 10.5 21 10.5C15.2014 10.5 10.5 15.2014 10.5 21ZM27.5625 21C27.5625 24.6172 24.6172 27.5625 21 27.5625C17.3801 27.5625 14.4375 24.6172 14.4375 21C14.4375 17.3827 17.3801 14.4375 21 14.4375C24.6172 14.4375 27.5625 17.3827 27.5625 21Z" fill="white"/>
<path d="M11.1115 9.7122C11.1115 8.93949 10.4851 8.31308 9.71241 8.31308C8.9397 8.31308 8.31329 8.93949 8.31329 9.7122C8.31329 10.4849 8.9397 11.1113 9.71241 11.1113C10.4851 11.1113 11.1115 10.4849 11.1115 9.7122Z" fill="white"/>
</svg>
