<svg width="33" height="32" viewBox="0 0 33 32" fill="none" xmlns="http://www.w3.org/2000/svg">
<mask id="mask0_98395_1632" style="mask-type:alpha" maskUnits="userSpaceOnUse" x="0" y="0" width="33" height="32">
<rect x="0.712891" width="32" height="32" fill="#D9D9D9"/>
</mask>
<g mask="url(#mask0_98395_1632)">
<path d="M2.04622 25.3333V11.9999L11.3796 5.33325L20.7129 11.9999V12.8999C20.2018 13.1444 19.724 13.4275 19.2796 13.7493C18.8351 14.0719 18.424 14.4333 18.0462 14.8333V13.3333L11.3796 8.59992L4.71289 13.3333V22.6666H7.37955V15.9999H15.3796V22.6666H15.4796C15.5462 23.1333 15.6462 23.5888 15.7796 24.0333C15.9129 24.4777 16.0796 24.911 16.2796 25.3333H12.7129V18.6666H10.0462V25.3333H2.04622ZM31.3796 1.33325V14.8333C31.0018 14.4333 30.5907 14.0719 30.1462 13.7493C29.7018 13.4275 29.224 13.1444 28.7129 12.8999V3.99992H16.7129V5.86659L14.0462 3.93325V1.33325H31.3796ZM23.3796 9.33325H26.0462V6.66658H23.3796V9.33325ZM24.7129 27.9999C22.8684 27.9999 21.2964 27.3501 19.9969 26.0506C18.6964 24.7501 18.0462 23.1777 18.0462 21.3333C18.0462 19.4888 18.6964 17.9164 19.9969 16.6159C21.2964 15.3164 22.8684 14.6666 24.7129 14.6666C26.5573 14.6666 28.1298 15.3164 29.4302 16.6159C30.7298 17.9164 31.3796 19.4888 31.3796 21.3333C31.3796 23.1777 30.7298 24.7501 29.4302 26.0506C28.1298 27.3501 26.5573 27.9999 24.7129 27.9999ZM24.0462 25.3333H25.3796V21.9999H28.7129V20.6666H25.3796V17.3333H24.0462V20.6666H20.7129V21.9999H24.0462V25.3333Z" fill="black"/>
</g>
</svg>
