<svg width="34" height="32" viewBox="0 0 34 32" fill="none" xmlns="http://www.w3.org/2000/svg">
<mask id="mask0_98395_1651" style="mask-type:alpha" maskUnits="userSpaceOnUse" x="0" y="0" width="34" height="32">
<rect x="0.54303" width="33.1483" height="32" fill="#D9D9D9"/>
</mask>
<g mask="url(#mask0_98395_1651)">
<path d="M6.06776 28.0001C5.30812 28.0001 4.65804 27.7392 4.11754 27.2174C3.57612 26.6947 3.3054 26.0667 3.3054 25.3334V10.6667C3.3054 9.93341 3.57612 9.30586 4.11754 8.78408C4.65804 8.26141 5.30812 8.00008 6.06776 8.00008H11.5925V5.33341C11.5925 4.60008 11.8632 3.97208 12.4046 3.44941C12.9451 2.92764 13.5952 2.66675 14.3548 2.66675H19.8796C20.6392 2.66675 21.2898 2.92764 21.8312 3.44941C22.3717 3.97208 22.6419 4.60008 22.6419 5.33341V8.00008H28.1666C28.9263 8.00008 29.5768 8.26141 30.1183 8.78408C30.6588 9.30586 30.929 9.93341 30.929 10.6667V25.3334C30.929 26.0667 30.6588 26.6947 30.1183 27.2174C29.5768 27.7392 28.9263 28.0001 28.1666 28.0001H6.06776ZM14.3548 8.00008H19.8796V5.33341H14.3548V8.00008ZM28.1666 20.0001H21.2607V22.6667H12.9737V20.0001H6.06776V25.3334H28.1666V20.0001ZM15.736 20.0001H18.4984V17.3334H15.736V20.0001ZM6.06776 17.3334H12.9737V14.6667H21.2607V17.3334H28.1666V10.6667H6.06776V17.3334Z" fill="black"/>
</g>
</svg>
