<svg width="33" height="32" viewBox="0 0 33 32" fill="none" xmlns="http://www.w3.org/2000/svg">
<mask id="mask0_98395_1623" style="mask-type:alpha" maskUnits="userSpaceOnUse" x="0" y="0" width="33" height="32">
<rect x="0.397644" width="32" height="32" fill="#D9D9D9"/>
</mask>
<g mask="url(#mask0_98395_1623)">
<path d="M16.231 26.6665C16.3199 26.6665 16.4088 26.6443 16.4977 26.5998C16.5865 26.5554 16.6532 26.5109 16.6977 26.4665L27.631 15.5332C27.8977 15.2665 28.0923 14.9665 28.215 14.6332C28.3368 14.2998 28.3977 13.9665 28.3977 13.6332C28.3977 13.2776 28.3368 12.9385 28.215 12.6158C28.0923 12.2941 27.8977 12.0109 27.631 11.7665L21.9643 6.09984C21.7199 5.83317 21.4368 5.6385 21.115 5.51584C20.7923 5.39406 20.4532 5.33317 20.0977 5.33317C19.7643 5.33317 19.431 5.39406 19.0977 5.51584C18.7643 5.6385 18.4643 5.83317 18.1977 6.09984L17.831 6.4665L20.2977 8.9665C20.631 9.27761 20.8754 9.63317 21.031 10.0332C21.1865 10.4332 21.2643 10.8554 21.2643 11.2998C21.2643 12.2332 20.9479 13.0163 20.315 13.6492C19.6812 14.2829 18.8977 14.5998 17.9643 14.5998C17.5199 14.5998 17.0923 14.5221 16.6817 14.3665C16.2701 14.2109 15.9088 13.9776 15.5977 13.6665L13.0977 11.1998L7.26432 17.0332C7.19765 17.0998 7.14743 17.1723 7.11365 17.2505C7.08076 17.3278 7.06432 17.4109 7.06432 17.4998C7.06432 17.6776 7.13099 17.8385 7.26432 17.9825C7.39765 18.1274 7.55321 18.1998 7.73099 18.1998C7.81987 18.1998 7.90876 18.1776 7.99765 18.1332C8.08654 18.0887 8.15321 18.0443 8.19765 17.9998L12.731 13.4665L14.5977 15.3332L10.0977 19.8665C10.031 19.9332 9.98076 20.0052 9.94699 20.0825C9.9141 20.1607 9.89765 20.2443 9.89765 20.3332C9.89765 20.5109 9.96432 20.6665 10.0977 20.7998C10.231 20.9332 10.3865 20.9998 10.5643 20.9998C10.6532 20.9998 10.7421 20.9776 10.831 20.9332C10.9199 20.8887 10.9865 20.8443 11.031 20.7998L15.5643 16.2998L17.431 18.1665L12.931 22.6998C12.8643 22.7443 12.8145 22.8109 12.7817 22.8998C12.7479 22.9887 12.731 23.0776 12.731 23.1665C12.731 23.3443 12.7977 23.4998 12.931 23.6332C13.0643 23.7665 13.2199 23.8332 13.3977 23.8332C13.4865 23.8332 13.5701 23.8163 13.6483 23.7825C13.7257 23.7496 13.7977 23.6998 13.8643 23.6332L18.3977 19.1332L20.2643 20.9998L15.731 25.5332C15.6643 25.5998 15.6145 25.6718 15.5817 25.7492C15.5479 25.8274 15.531 25.9109 15.531 25.9998C15.531 26.1776 15.6034 26.3332 15.7483 26.4665C15.8923 26.5998 16.0532 26.6665 16.231 26.6665ZM16.1977 29.3332C15.3754 29.3332 14.6479 29.0607 14.015 28.5158C13.3812 27.9718 13.0088 27.2887 12.8977 26.4665C12.1421 26.3554 11.5088 26.0443 10.9977 25.5332C10.4865 25.0221 10.1754 24.3887 10.0643 23.6332C9.30876 23.5221 8.68121 23.2056 8.18165 22.6838C7.68121 22.1612 7.37543 21.5332 7.26432 20.7998C6.41987 20.6887 5.73098 20.3221 5.19765 19.6998C4.66432 19.0776 4.39765 18.3443 4.39765 17.4998C4.39765 17.0554 4.48121 16.6274 4.64832 16.2158C4.81454 15.8052 5.05321 15.4443 5.36432 15.1332L13.0977 7.43317L17.4643 11.7998C17.5088 11.8665 17.5754 11.9163 17.6643 11.9492C17.7532 11.9829 17.8421 11.9998 17.931 11.9998C18.131 11.9998 18.2977 11.9389 18.431 11.8172C18.5643 11.6945 18.631 11.5332 18.631 11.3332C18.631 11.2443 18.6145 11.1554 18.5817 11.0665C18.5479 10.9776 18.4977 10.9109 18.431 10.8665L13.6643 6.09984C13.4199 5.83317 13.1363 5.6385 12.8137 5.51584C12.4919 5.39406 12.1532 5.33317 11.7977 5.33317C11.4643 5.33317 11.131 5.39406 10.7977 5.51584C10.4643 5.6385 10.1643 5.83317 9.89765 6.09984L5.19765 10.8332C4.99765 11.0332 4.83098 11.2665 4.69765 11.5332C4.56432 11.7998 4.47543 12.0665 4.43098 12.3332C4.38654 12.5998 4.38654 12.8718 4.43098 13.1492C4.47543 13.4274 4.56432 13.6887 4.69765 13.9332L2.76432 15.8665C2.38654 15.3554 2.10876 14.7941 1.93098 14.1825C1.75321 13.5718 1.68654 12.9554 1.73098 12.3332C1.77543 11.7109 1.93098 11.1052 2.19765 10.5158C2.46432 9.92739 2.83098 9.39984 3.29765 8.93317L7.99765 4.23317C8.53098 3.72206 9.12565 3.33317 9.78165 3.0665C10.4368 2.79984 11.1088 2.6665 11.7977 2.6665C12.4865 2.6665 13.1585 2.79984 13.8137 3.0665C14.4697 3.33317 15.0532 3.72206 15.5643 4.23317L15.931 4.59984L16.2977 4.23317C16.831 3.72206 17.4252 3.33317 18.0803 3.0665C18.7363 2.79984 19.4088 2.6665 20.0977 2.6665C20.7865 2.6665 21.459 2.79984 22.115 3.0665C22.7701 3.33317 23.3532 3.72206 23.8643 4.23317L29.4977 9.8665C30.0088 10.3776 30.3977 10.9665 30.6643 11.6332C30.931 12.2998 31.0643 12.9776 31.0643 13.6665C31.0643 14.3554 30.931 15.0274 30.6643 15.6825C30.3977 16.3385 30.0088 16.9221 29.4977 17.4332L18.5643 28.3332C18.2532 28.6443 17.8919 28.8887 17.4803 29.0665C17.0697 29.2443 16.6421 29.3332 16.1977 29.3332Z" fill="black"/>
</g>
</svg>
