<svg width="24" height="25" viewBox="0 0 24 25" fill="none" xmlns="http://www.w3.org/2000/svg">
<mask id="mask0_98331_105" style="mask-type:alpha" maskUnits="userSpaceOnUse" x="0" y="0" width="24" height="25">
<rect y="0.66288" width="24" height="23.3541" fill="#D9D9D9"/>
</mask>
<g mask="url(#mask0_98331_105)">
<path d="M4 20.1246C3.45 20.1246 2.97933 19.9342 2.588 19.5534C2.196 19.172 2 18.7137 2 18.1785V6.5014C2 5.96621 2.196 5.50821 2.588 5.1274C2.97933 4.74595 3.45 4.55523 4 4.55523H20C20.55 4.55523 21.021 4.74595 21.413 5.1274C21.8043 5.50821 22 5.96621 22 6.5014V18.1785C22 18.7137 21.8043 19.172 21.413 19.5534C21.021 19.9342 20.55 20.1246 20 20.1246H4ZM12 13.313L4 8.44758V18.1785H20V8.44758L12 13.313ZM12 11.3668L20 6.5014H4L12 11.3668ZM4 8.44758V6.5014V18.1785V8.44758Z" fill="#FFA501"/>
</g>
</svg>
