<svg width="24" height="25" viewBox="0 0 24 25" fill="none" xmlns="http://www.w3.org/2000/svg">
<mask id="mask0_98331_102" style="mask-type:alpha" maskUnits="userSpaceOnUse" x="0" y="0" width="24" height="25">
<rect y="0.973091" width="24" height="23.3541" fill="#D9D9D9"/>
</mask>
<g mask="url(#mask0_98331_102)">
<path d="M19.95 21.4079C17.8 21.4079 15.7043 20.9415 13.663 20.0086C11.621 19.0764 9.81267 17.8438 8.238 16.3109C6.66267 14.7786 5.396 13.0189 4.438 11.0319C3.47933 9.0455 3 7.00623 3 4.9141C3 4.62217 3.1 4.3789 3.3 4.18428C3.5 3.98966 3.75 3.89235 4.05 3.89235H8.1C8.33333 3.89235 8.54167 3.96533 8.725 4.1113C8.90833 4.25726 9.01667 4.44377 9.05 4.67082L9.7 8.07663C9.73333 8.30368 9.72933 8.5103 9.688 8.69649C9.646 8.88332 9.55 9.04972 9.4 9.19568L6.975 11.5797C7.675 12.7475 8.55433 13.8422 9.613 14.8639C10.671 15.8857 11.8333 16.7695 13.1 17.5156L15.45 15.2288C15.6 15.0829 15.796 14.9732 16.038 14.8999C16.2793 14.8273 16.5167 14.8072 16.75 14.8396L20.2 15.5208C20.4333 15.5694 20.625 15.6787 20.775 15.8487C20.925 16.0193 21 16.2181 21 16.4452V20.3862C21 20.6781 20.9 20.9214 20.7 21.116C20.5 21.3106 20.25 21.4079 19.95 21.4079ZM6.025 9.73088L7.675 8.12528L7.25 5.83853H5.025C5.10833 6.50347 5.225 7.16031 5.375 7.80903C5.525 8.45776 5.74167 9.09837 6.025 9.73088ZM14.975 18.44C15.625 18.7157 16.2877 18.9347 16.963 19.0968C17.6377 19.259 18.3167 19.3644 19 19.4131V17.2723L16.65 16.8101L14.975 18.44Z" fill="#FFA501"/>
</g>
</svg>
