<svg width="33" height="33" viewBox="0 0 33 33" fill="none" xmlns="http://www.w3.org/2000/svg">
<path d="M27.6238 0.000228882L4.74092 0.000228882C2.12699 0.000228882 0 2.16898 0 4.83421L0 28.1662C0 30.8315 2.12699 33.0002 4.74092 33.0002H14.286L14.286 21.3342L10.4932 21.3342L10.4932 15.5334H14.286V11.6018C14.286 8.40305 16.8379 5.80101 19.9751 5.80101L25.7274 5.80101L25.7274 11.6018H19.9751V15.5334H25.7274L24.7792 21.3342H19.9751V33.0002L27.6238 33.0002C30.2377 33.0002 32.3647 30.8315 32.3647 28.1662L32.3647 4.83421C32.3647 2.16898 30.2377 0.000228882 27.6238 0.000228882Z" fill="#A8A8A8"/>
</svg>
