<svg width="33" height="33" viewBox="0 0 33 33" fill="none" xmlns="http://www.w3.org/2000/svg">
<path d="M0.276366 10.3125L0.276367 22.6875C0.276367 28.3821 4.8054 33 10.3903 33L22.5271 33C28.112 33 32.641 28.3821 32.641 22.6875L32.641 10.3125C32.641 4.61795 28.112 1.40182e-05 22.5271 1.42671e-05L10.3903 1.4808e-05C4.8054 1.50569e-05 0.276366 4.61795 0.276366 10.3125ZM22.5271 3.09376C26.4311 3.09376 29.6068 6.33189 29.6068 10.3125L29.6068 22.6875C29.6068 26.6681 26.4311 29.9063 22.5271 29.9063L10.3903 29.9063C6.48634 29.9063 3.31055 26.6681 3.31055 22.6875L3.31055 10.3125C3.31055 6.33189 6.48634 3.09376 10.3903 3.09376L22.5271 3.09376Z" fill="#FFA501"/>
<path d="M8.36768 16.5002C8.36768 21.0563 11.9905 24.7502 16.4588 24.7502C20.9272 24.7502 24.55 21.0563 24.55 16.5002C24.55 11.9442 20.9272 8.25025 16.4588 8.25025C11.9905 8.25025 8.36768 11.9442 8.36768 16.5002ZM21.5158 16.5002C21.5158 19.3424 19.2463 21.6565 16.4588 21.6565C13.6694 21.6565 11.4019 19.3424 11.4019 16.5002C11.4019 13.6581 13.6694 11.344 16.4588 11.344C19.2462 11.344 21.5158 13.6581 21.5158 16.5002Z" fill="#FFA501"/>
<path d="M8.8389 7.63116C8.8389 7.02402 8.3562 6.53185 7.76076 6.53185C7.16532 6.53185 6.68262 7.02402 6.68262 7.63116C6.68262 8.23829 7.16532 8.73047 7.76076 8.73047C8.3562 8.73047 8.8389 8.23829 8.8389 7.63116Z" fill="#FFA501"/>
</svg>
