<svg width="33" height="33" viewBox="0 0 33 33" fill="none" xmlns="http://www.w3.org/2000/svg">
<path d="M16.5178 33.0002C25.4572 33.0002 32.7001 25.6151 32.7001 16.5002C32.7001 7.38535 25.4572 0.000228882 16.5178 0.000228882C7.57839 0.000228882 0.335449 7.38535 0.335449 16.5002C0.335449 25.6151 7.57839 33.0002 16.5178 33.0002ZM7.74022 16.1427L23.3427 10.0089C24.0668 9.7421 24.6993 10.189 24.4647 11.3055L24.466 11.3041L21.8094 24.0655C21.6125 24.9702 21.0853 25.1902 20.3476 24.764L16.302 21.7238L14.3507 23.6406C14.1349 23.8606 13.9529 24.0462 13.5348 24.0462L13.8221 19.8483L21.3199 12.9417C21.6462 12.6488 21.2471 12.4839 20.8169 12.7753L11.5512 18.7236L7.55682 17.4531C6.68971 17.1726 6.67083 16.569 7.74022 16.1427Z" fill="#A8A8A8"/>
</svg>
