<svg width="43" height="42" viewBox="0 0 43 42" fill="none" xmlns="http://www.w3.org/2000/svg">
<path d="M21.3353 42C32.936 42 42.3353 32.6007 42.3353 21C42.3353 9.39925 32.936 0 21.3353 0C9.73452 0 0.335266 9.39925 0.335266 21C0.335266 32.6007 9.73452 42 21.3353 42ZM9.94452 20.545L30.192 12.7382C31.1318 12.3987 31.9525 12.9675 31.648 14.3885L31.6498 14.3867L28.2023 30.6285C27.9468 31.78 27.2625 32.06 26.3053 31.5175L21.0553 27.6483L18.523 30.0878C18.243 30.3678 18.0068 30.604 17.4643 30.604L17.837 25.2613L27.567 16.471C27.9905 16.0982 27.4725 15.8883 26.9143 16.2593L14.89 23.8298L9.70652 22.2127C8.58127 21.8557 8.55677 21.0875 9.94452 20.545Z" fill="white"/>
</svg>
