<svg width="24" height="24" viewBox="0 0 24 24" fill="none" xmlns="http://www.w3.org/2000/svg">
<mask id="mask0_98358_167" style="mask-type:alpha" maskUnits="userSpaceOnUse" x="0" y="0" width="24" height="24">
<rect width="24" height="23.3541" fill="#D9D9D9"/>
</mask>
<g mask="url(#mask0_98358_167)">
<path d="M10 13.6232C9.16667 13.6232 8.45833 13.3394 7.875 12.7718C7.29167 12.2041 7 11.5149 7 10.7039C7 10.3471 7.05833 10.0105 7.175 9.69388C7.29167 9.37795 7.46667 9.09024 7.7 8.83075C7.63333 8.66857 7.58333 8.49828 7.55 8.31988C7.51667 8.14148 7.5 7.96308 7.5 7.78468C7.5 7.1684 7.67067 6.62087 8.012 6.14211C8.354 5.664 8.8 5.31142 9.35 5.08437C9.68333 4.71135 10.075 4.41942 10.525 4.20859C10.975 3.99775 11.4667 3.89233 12 3.89233C12.5333 3.89233 13.025 3.99775 13.475 4.20859C13.925 4.41942 14.3167 4.71135 14.65 5.08437C15.2 5.31142 15.646 5.664 15.988 6.14211C16.3293 6.62087 16.5 7.1684 16.5 7.78468C16.5 7.96308 16.4833 8.14148 16.45 8.31988C16.4167 8.49828 16.3667 8.66857 16.3 8.83075C16.5333 9.09024 16.7083 9.37795 16.825 9.69388C16.9417 10.0105 17 10.3471 17 10.7039C17 11.5149 16.7083 12.2041 16.125 12.7718C15.5417 13.3394 14.8333 13.6232 14 13.6232H10ZM10 11.677H14C14.2833 11.677 14.521 11.5797 14.713 11.3851C14.9043 11.1905 15 10.9634 15 10.7039C15 10.5904 14.9793 10.485 14.938 10.3877C14.896 10.2904 14.8333 10.1931 14.75 10.0958C14.5667 9.88493 14.446 9.67799 14.388 9.47494C14.3293 9.27254 14.3 9.08213 14.3 8.90374C14.3 8.64425 14.3333 8.42108 14.4 8.23425C14.4667 8.04807 14.5 7.89821 14.5 7.78468C14.5 7.59007 14.4417 7.41167 14.325 7.24949C14.2083 7.08731 14.0583 6.96567 13.875 6.88458C13.725 6.81971 13.5877 6.74672 13.463 6.66563C13.3377 6.58454 13.225 6.47913 13.125 6.34938C13.0417 6.25207 12.9043 6.14276 12.713 6.02145C12.521 5.89949 12.2833 5.83851 12 5.83851C11.7167 5.83851 11.4793 5.90338 11.288 6.03313C11.096 6.16287 10.9583 6.2764 10.875 6.37371C10.775 6.48723 10.6627 6.58454 10.538 6.66563C10.4127 6.74672 10.275 6.81971 10.125 6.88458C9.94167 6.96567 9.79167 7.08731 9.675 7.24949C9.55833 7.41167 9.5 7.59007 9.5 7.78468C9.5 7.89821 9.53333 8.04807 9.6 8.23425C9.66667 8.42108 9.7 8.64425 9.7 8.90374C9.7 9.08213 9.671 9.27254 9.613 9.47494C9.55433 9.67799 9.43333 9.88493 9.25 10.0958C9.16667 10.1931 9.104 10.2904 9.062 10.3877C9.02067 10.485 9 10.5904 9 10.7039C9 10.9634 9.096 11.1905 9.288 11.3851C9.47933 11.5797 9.71667 11.677 10 11.677ZM4 21.4079V18.6833C4 18.1319 4.146 17.6252 4.438 17.1633C4.72933 16.7008 5.11667 16.3479 5.6 16.1046C6.63333 15.6018 7.68333 15.2246 8.75 14.9729C9.81667 14.7218 10.9 14.5963 12 14.5963C13.1 14.5963 14.1833 14.7218 15.25 14.9729C16.3167 15.2246 17.3667 15.6018 18.4 16.1046C18.8833 16.3479 19.2707 16.7008 19.562 17.1633C19.854 17.6252 20 18.1319 20 18.6833V21.4079H4ZM6 19.4617H18V18.6833C18 18.5049 17.9543 18.3427 17.863 18.1967C17.771 18.0508 17.65 17.9372 17.5 17.8561C16.6 17.4183 15.6917 17.0897 14.775 16.8704C13.8583 16.6518 12.9333 16.5425 12 16.5425C11.0667 16.5425 10.1417 16.6518 9.225 16.8704C8.30833 17.0897 7.4 17.4183 6.5 17.8561C6.35 17.9372 6.22933 18.0508 6.138 18.1967C6.046 18.3427 6 18.5049 6 18.6833V19.4617Z" fill="#FFA501"/>
</g>
</svg>
