<svg width="33" height="33" viewBox="0 0 33 33" fill="none" xmlns="http://www.w3.org/2000/svg">
<path d="M27.6703 0.000244141L4.78743 0.000244141C2.1735 0.000244141 0.0465088 2.16899 0.0465088 4.83423L0.0465088 28.1663C0.0465088 30.8315 2.1735 33.0002 4.78743 33.0002H14.3325L14.3325 21.3342L10.5397 21.3342L10.5397 15.5334H14.3325V11.6018C14.3325 8.40307 16.8844 5.80102 20.0216 5.80102L25.7739 5.80102L25.7739 11.6018H20.0216V15.5334H25.7739L24.8257 21.3342H20.0216V33.0002L27.6703 33.0002C30.2842 33.0002 32.4112 30.8315 32.4112 28.1663L32.4112 4.83423C32.4112 2.16899 30.2842 0.000244141 27.6703 0.000244141Z" fill="black"/>
</svg>
