<svg width="33" height="33" viewBox="0 0 33 33" fill="none" xmlns="http://www.w3.org/2000/svg">
<path d="M16.5641 33.0002C25.5035 33.0002 32.7464 25.6151 32.7464 16.5002C32.7464 7.38537 25.5035 0.000244141 16.5641 0.000244141C7.62472 0.000244141 0.381775 7.38537 0.381775 16.5002C0.381775 25.6151 7.62472 33.0002 16.5641 33.0002ZM7.78654 16.1427L23.389 10.0089C24.1132 9.74212 24.7456 10.189 24.511 11.3055L24.5123 11.3041L21.8557 24.0655C21.6588 24.9702 21.1316 25.1902 20.3939 24.764L16.3483 21.7239L14.397 23.6406C14.1813 23.8606 13.9992 24.0462 13.5812 24.0462L13.8684 19.8484L21.3662 12.9417C21.6926 12.6489 21.2934 12.4839 20.8632 12.7754L11.5975 18.7236L7.60314 17.4531C6.73604 17.1726 6.71716 16.569 7.78654 16.1427Z" fill="black"/>
</svg>
